<?xml version="1.0" standalone="no"?>
<!DOCTYPE svg PUBLIC "-//W3C//DTD SVG 1.1//EN" "http://www.w3.org/Graphics/SVG/1.1/DTD/svg11.dtd" >
<svg xmlns="http://www.w3.org/2000/svg">
<metadata></metadata>
<defs>
<font id="adamant_sans_bgregular" horiz-adv-x="331" >
<font-face units-per-em="2048" ascent="1577" descent="-471" />
<missing-glyph horiz-adv-x="552" />
<glyph horiz-adv-x="0" />
<glyph horiz-adv-x="682" />
<glyph unicode=" "  horiz-adv-x="552" />
<glyph unicode="&#x09;" horiz-adv-x="552" />
<glyph unicode="&#xa0;" horiz-adv-x="552" />
<glyph unicode="!" d="M133 23q0 32 33 32t33 -32q0 -33 -33 -33t-33 33zM154 303v1172h24v-1172h-24z" />
<glyph unicode="&#x22;" horiz-adv-x="475" d="M133 1186v370h25v-370h-25zM317 1186v370h25v-370h-25z" />
<glyph unicode="#" horiz-adv-x="1073" d="M41 455v22h233l117 494h-227v22h233l105 441h24l-104 -441h358l105 441h24l-104 -441h227v-22h-233l-117 -494h227v-22h-233l-107 -455h-24l106 455h-358l-107 -455h-24l106 455h-227zM299 477h358l117 494h-358z" />
<glyph unicode="$" horiz-adv-x="987" d="M104 135l11 21q162 -103 348 -103q78 0 147 20.5t124.5 60.5t87.5 106.5t32 150.5q0 36 -6.5 67.5t-15.5 56t-27.5 46.5t-34 37.5t-44 31.5t-48 25t-55 21.5t-56.5 18.5t-61 18q-44 13 -65 19.5t-61 20t-60 23.5t-52 27.5t-49 34.5t-38 42t-31 52t-17.5 62t-7.5 75 q0 156 107 243t282 89v196h25v-196q150 -6 286 -74l-10 -20q-143 71 -299 71q-70 0 -133 -17t-116.5 -52t-85 -96.5t-31.5 -143.5q0 -48 10.5 -87.5t27.5 -68.5t45.5 -53.5t56 -41t68 -32.5t73.5 -26.5t79 -23.5q3 -1 4 -1q38 -11 57 -17t53.5 -17t53 -19.5t46.5 -22.5 t44 -27.5t36.5 -32t32 -39.5t22.5 -47t15.5 -56.5t4.5 -65.5q0 -153 -92.5 -243t-247.5 -113v-207h-25v205q-29 -2 -55 -2q-204 0 -355 104z" />
<glyph unicode="%" horiz-adv-x="1525" d="M82 1034q0 198 68.5 309t187.5 111t187.5 -111t68.5 -309t-68.5 -309t-187.5 -111t-187.5 111t-68.5 309zM106 1034q0 -110 20.5 -190.5t55 -124t73.5 -63t83 -19.5t82.5 19.5t73 63t55 124t20.5 190.5q0 89 -13.5 159t-36 114t-53 73t-62 40.5t-66.5 11.5q-44 0 -83 -20 t-73.5 -63t-55 -124t-20.5 -191zM303 -51l897 1546l21 -12l-897 -1546zM932 399q0 198 68.5 309t187.5 111t187.5 -111t68.5 -309t-68.5 -308.5t-187.5 -110.5t-187.5 110.5t-68.5 308.5zM956 399q0 -110 20.5 -190.5t55 -124t73.5 -63t83 -19.5t82.5 19.5t73 63t55 124 t20.5 190.5q0 89 -13.5 159t-36 114t-53 73t-62 40.5t-66.5 11.5q-44 0 -83 -20t-73.5 -63t-55 -124t-20.5 -191z" />
<glyph unicode="&#x26;" horiz-adv-x="1224" d="M82 330q0 71 21 132.5t55 106t84 84t99.5 66t111.5 51.5l-11 12q-11 13 -43 49.5t-47 55t-40.5 55.5t-37.5 67.5t-22 74.5t-10 90q0 133 92.5 227t226.5 94q128 0 215.5 -81.5t87.5 -213.5q0 -81 -32.5 -152.5t-88 -124t-113 -89.5t-124.5 -66l-14 -6l450 -504 q78 112 120.5 256.5t45.5 302.5l25 -4q-12 -348 -172 -575l213 -238h-33l-197 219q-87 -115 -208.5 -177t-266.5 -62q-77 0 -145.5 21.5t-123 63.5t-86.5 110.5t-32 154.5zM106 330q0 -139 96.5 -233.5t266.5 -94.5q142 0 259.5 62.5t199.5 173.5l-461 516 q-35 -15 -60.5 -26.5t-66 -34t-69.5 -45t-62.5 -56.5t-54 -71t-34.5 -86.5t-14 -104.5zM266 1176q0 -56 12 -103.5t41 -94.5t53 -77t72 -84l33 -37q363 157 363 420q0 123 -79 198t-200 75q-126 0 -210.5 -86.5t-84.5 -210.5z" />
<glyph unicode="'" horiz-adv-x="290" d="M133 1186v370h25v-370h-25z" />
<glyph unicode="(" horiz-adv-x="557" d="M143 573q0 117 5.5 210.5t20.5 194.5t44 182t72.5 157t109.5 137t152 105l10 -21q-73 -38 -131 -89.5t-98.5 -108t-69.5 -129t-46.5 -141.5t-27.5 -157t-13 -165t-3 -175t3 -175t13 -164.5t27.5 -157t46.5 -141.5t69.5 -128.5t98.5 -108t131 -89.5l-10 -21 q-86 44 -152 105t-109.5 137t-72.5 156.5t-44 181.5t-20.5 194.5t-5.5 210.5z" />
<glyph unicode=")" horiz-adv-x="557" d="M0 -391q73 38 131 89.5t98.5 108t69.5 128.5t46.5 141.5t27.5 157t13 164.5t3 175t-3 175t-13 165t-27.5 157t-46.5 141.5t-69.5 129t-98.5 108t-131 89.5l10 21q86 -44 152 -105t109.5 -137t72.5 -157t44 -182t20.5 -194.5t5.5 -210.5t-5.5 -210.5t-20.5 -194.5 t-44 -181.5t-72.5 -156.5t-109.5 -137t-152 -105z" />
<glyph unicode="*" horiz-adv-x="806" d="M61 975l314 174l12 -23l-313 -174zM61 1327l13 23l313 -174l-12 -23zM391 766v358h25v-358h-25zM391 1178v358h25v-358h-25zM420 1126l12 23l313 -174l-12 -23zM420 1176l313 174l12 -23l-313 -174z" />
<glyph unicode="+" horiz-adv-x="1200" d="M82 565v23h506v518h24v-518h506v-23h-506v-528h-24v528h-506z" />
<glyph unicode="," horiz-adv-x="290" d="M10 -319q64 64 95.5 139.5t31.5 179.5q0 30 -2 55h25q2 -25 2 -55q0 -211 -135 -336z" />
<glyph unicode="-" horiz-adv-x="688" d="M61 569v23h566v-23h-566z" />
<glyph unicode="." horiz-adv-x="290" d="M113 23q0 17 7.5 24.5t24.5 7.5q33 0 33 -32q0 -33 -33 -33q-32 0 -32 33z" />
<glyph unicode="/" horiz-adv-x="610" d="M0 -113l586 1649h24l-585 -1649h-25z" />
<glyph unicode="0" horiz-adv-x="987" d="M82 717q0 358 107.5 547.5t304.5 189.5t304 -189.5t107 -547.5t-107 -547.5t-304 -189.5t-304.5 189.5t-107.5 547.5zM106 717q0 -156 22.5 -283.5t68 -225.5t121 -152t176.5 -54t176.5 54t121 152t67.5 225.5t22 283.5t-22 283.5t-67.5 225.5t-121 152t-176.5 54 t-176.5 -54t-121 -152t-68 -225.5t-22.5 -283.5z" />
<glyph unicode="1" horiz-adv-x="497" d="M10 1411v23h334v-1434h-25v1411h-309z" />
<glyph unicode="2" horiz-adv-x="831" d="M20 0v25l349 397q135 155 191 236q149 217 149 419q0 158 -81 256.5t-229 98.5q-84 0 -167 -33t-146 -92l-14 16q65 62 151 96.5t176 34.5q160 0 247 -104t87 -273q0 -51 -7.5 -100.5t-24.5 -97t-33.5 -86.5t-46.5 -85.5t-50 -76.5t-57.5 -75.5t-56 -67t-58.5 -66.5 l-348 -397h699v-25h-730z" />
<glyph unicode="3" horiz-adv-x="880" d="M31 76l10 20q140 -94 307 -94q107 0 190.5 33.5t134 92t76 132t25.5 158.5q0 163 -97.5 255.5t-250.5 92.5h-188v22h184q137 0 225 93t88 229q0 74 -21.5 132t-55 93t-80 57.5t-91.5 31t-94 8.5q-152 0 -309 -86l-10 20q160 88 319 88q77 0 141 -19t116 -58.5t81 -107.5 t29 -159q0 -123 -64 -211t-178 -119q130 -29 205.5 -121.5t75.5 -240.5q0 -108 -35.5 -193t-97.5 -138t-142.5 -80t-175.5 -27q-183 0 -317 96z" />
<glyph unicode="4" horiz-adv-x="944" d="M20 326v20l658 1108h41v-1106h211v-22h-211v-326h-25v326h-674zM49 348h645v1088z" />
<glyph unicode="5" horiz-adv-x="923" d="M90 55l10 21q117 -74 275 -74q195 0 318.5 111.5t123.5 316.5q0 186 -106.5 284.5t-280.5 98.5q-150 0 -287 -55l-10 6v670h612v-25h-589v-623q126 50 274 50q185 0 298.5 -103.5t113.5 -302.5q0 -143 -63 -246.5t-167.5 -153.5t-236.5 -50q-164 0 -285 75z" />
<glyph unicode="6" horiz-adv-x="933" d="M92 537q0 134 20 262t64 248t108 209.5t159.5 143.5t211.5 54q71 0 123 -18l-6 -23q-52 19 -117 19q-101 0 -186 -44t-143.5 -117.5t-102 -173.5t-67 -205.5t-33.5 -221.5q59 103 157.5 161t219.5 58q94 0 165 -36t113 -100.5t63 -146t21 -178.5q0 -92 -26 -172.5 t-74 -142t-122.5 -97.5t-166.5 -36q-89 0 -157 31.5t-110 83.5t-68 126t-36 150t-10 166zM117 545q0 -543 356 -543q166 0 265.5 121.5t99.5 304.5q0 94 -19.5 172t-59 138.5t-106 94t-153.5 33.5q-122 0 -212.5 -58t-148.5 -153q-22 -39 -22 -110z" />
<glyph unicode="7" horiz-adv-x="778" d="M10 1409v25h748v-25l-608 -1429l-23 10l604 1419h-721z" />
<glyph unicode="8" horiz-adv-x="999" d="M82 354q0 61 18.5 118t58 111.5t110.5 98t167 68.5q-68 23 -119 50t-98 68t-72.5 101t-25.5 135q0 158 112 254t275 96q165 0 271 -92.5t106 -249.5q0 -140 -94 -241.5t-236 -133.5q174 -49 268.5 -139.5t94.5 -237.5q0 -121 -59.5 -208.5t-154.5 -129.5t-212 -42 q-182 0 -296 99t-114 275zM106 354q0 -165 110 -258.5t276 -93.5q80 0 151.5 23t127.5 66.5t89 113t33 155.5q0 58 -15.5 106.5t-46.5 85t-66.5 64.5t-87.5 50.5t-96 37.5t-104 31q-74 -14 -138.5 -43t-117.5 -74.5t-84 -113.5t-31 -150zM145 1104q0 -64 22.5 -117t55.5 -88 t84.5 -65t96.5 -47t104 -35q149 22 250.5 121.5t101.5 238.5q0 146 -101 233t-251 87q-153 0 -258 -90t-105 -238z" />
<glyph unicode="9" horiz-adv-x="925" d="M72 1001q0 125 44 226.5t134.5 164t214.5 62.5q369 0 369 -567q0 -139 -19.5 -267.5t-62.5 -246t-106.5 -204t-158.5 -138t-211 -51.5q-77 0 -129 18l7 22q50 -18 122 -18q103 0 187.5 42.5t143.5 115t101.5 174.5t66 215t32.5 242q-59 -107 -157 -166.5t-220 -59.5 q-94 0 -164 32t-112 91.5t-62 137.5t-20 175zM96 1001q0 -193 81 -303t253 -110q228 0 356 211q23 40 23 110q0 78 -8.5 147t-31.5 140t-60 121.5t-99.5 82.5t-144.5 32q-117 0 -202 -60.5t-126 -156.5t-41 -214z" />
<glyph unicode=":" horiz-adv-x="290" d="M113 23q0 17 7.5 24.5t24.5 7.5q33 0 33 -32q0 -33 -33 -33q-32 0 -32 33zM113 901q0 33 32 33q33 0 33 -33t-33 -33q-32 0 -32 33z" />
<glyph unicode=";" horiz-adv-x="290" d="M10 -319q64 64 95.5 139.5t31.5 179.5q0 30 -2 55h25q2 -25 2 -55q0 -211 -135 -336zM113 901q0 33 32 33q33 0 33 -33t-33 -33q-32 0 -32 33z" />
<glyph unicode="&#x3c;" horiz-adv-x="1200" d="M86 555v33l1026 518l10 -23l-1013 -512l1013 -512l-10 -22z" />
<glyph unicode="=" horiz-adv-x="1200" d="M82 403v23h1036v-23h-1036zM82 727v23h1036v-23h-1036z" />
<glyph unicode="&#x3e;" horiz-adv-x="1200" d="M78 59l1014 512l-1014 512l10 23l1026 -518v-33l-1026 -518z" />
<glyph unicode="?" horiz-adv-x="786" d="M41 1368q167 127 346 127q79 0 141.5 -29t100 -78t57 -108.5t19.5 -124.5q0 -70 -13.5 -127t-36.5 -97t-52.5 -74t-62.5 -64t-66 -61t-63 -71t-54 -87.5t-38.5 -117t-15.5 -153.5h-24q3 111 26.5 196.5t59 138.5t78 95.5t84 80t76 80.5t56 109t21.5 152q0 45 -10.5 89.5 t-33.5 86t-56 73t-83 50.5t-110 19q-171 0 -332 -123zM258 23q0 32 33 32t33 -32q0 -33 -33 -33t-33 33z" />
<glyph unicode="@" horiz-adv-x="1560" d="M82 471q0 177 63 335.5t171 271.5t258 179t319 66q136 0 247 -47.5t185 -133t114 -203t40 -257.5q0 -99 -28.5 -195.5t-81 -176.5t-135 -129.5t-181.5 -49.5q-121 0 -121 107q0 26 4 51l10 55q-49 -98 -124 -155.5t-165 -57.5q-99 0 -149.5 71t-50.5 193q0 72 19 149.5 t56.5 149.5t88.5 129.5t120.5 92t145.5 34.5q86 0 162 -45l6 35l26 10l-118 -653q-7 -36 -7 -59q0 -84 97 -84q75 0 141 31t113 84t80.5 121t50 142.5t16.5 149.5q0 278 -150.5 448t-410.5 170q-166 0 -313 -65.5t-250.5 -176.5t-163.5 -264t-60 -323q0 -203 83 -362.5 t234 -248.5t345 -89q168 0 303 77l10 -20q-137 -80 -313 -80q-150 0 -277 52.5t-217 146.5t-141 229t-51 295zM481 397q0 -110 44 -176.5t132 -66.5q54 0 103.5 24t84 59.5t61.5 77.5t41 74.5t18 54.5l79 439q-71 45 -157 45q-89 0 -167.5 -51t-129.5 -129.5t-80 -171.5 t-29 -179z" />
<glyph unicode="A" horiz-adv-x="1112" d="M10 0l529 1475h34l529 -1475h-27l-196 545h-648l-196 -545h-25zM238 567h634l-317 885z" />
<glyph unicode="B" horiz-adv-x="1015" d="M133 0v1475h203q510 0 510 -361q0 -53 -16.5 -105t-48.5 -99t-87 -82t-125 -48q54 -3 103.5 -15.5t98 -40t84 -66.5t57.5 -99.5t22 -134.5q0 -206 -156.5 -315t-417.5 -109h-227zM158 23h202q81 0 155.5 11.5t148 41t126.5 73.5t86 115t33 160q0 69 -20.5 124.5t-50 90.5 t-74.5 60.5t-83.5 38t-87 19.5t-74 8t-56.5 1h-305v-743zM158 788h305q164 0 261 92.5t97 233.5q0 81 -29 142t-75 97.5t-112 59.5t-130 31t-139 8h-178v-664z" />
<glyph unicode="C" horiz-adv-x="1069" d="M82 737q0 160 42 297.5t119.5 240.5t196.5 161.5t265 58.5q175 0 299 -61l-11 -21q-52 26 -130 43t-158 17q-123 0 -224.5 -42.5t-170 -114t-115.5 -167.5t-68 -199.5t-21 -212.5q0 -114 17.5 -216t60 -198.5t106.5 -166.5t165 -112t229 -42q199 0 344 90l10 -20 q-146 -92 -354 -92q-150 0 -265.5 54.5t-189 155t-110.5 238.5t-37 309z" />
<glyph unicode="D" horiz-adv-x="1208" d="M133 0v1475h287q364 0 535 -185t171 -553q0 -367 -171 -552t-535 -185h-287zM158 23h262q185 0 318.5 49.5t212 145t115 223t36.5 296.5q0 355 -165 535t-517 180h-262v-1429z" />
<glyph unicode="E" horiz-adv-x="894" d="M133 0v1475h680v-23h-655v-664h526v-22h-526v-743h696v-23h-721z" />
<glyph unicode="F" horiz-adv-x="854" d="M133 0v1475h680v-23h-655v-727h526v-23h-526v-702h-25z" />
<glyph unicode="G" horiz-adv-x="1228" d="M82 737q0 128 24.5 241t75.5 208t125 163.5t177 107t227 38.5q197 0 346 -76l-10 -20q-68 35 -159 54.5t-177 19.5q-275 0 -440 -196.5t-165 -539.5q0 -110 16.5 -210.5t57 -198t103 -168.5t162 -114.5t225.5 -43.5q216 0 401 82v586h-373v22h398v-622q-194 -90 -426 -90 q-193 0 -327 96.5t-197.5 264.5t-63.5 396z" />
<glyph unicode="H" horiz-adv-x="1193" d="M133 0v1475h25v-687h878v687h25v-1475h-25v766h-878v-766h-25z" />
<glyph unicode="I" d="M154 0v1475h24v-1475h-24z" />
<glyph unicode="J" d="M-160 -307q142 6 228 101.5t86 271.5v1409h24v-1409q0 -186 -93 -288.5t-241 -107.5z" />
<glyph unicode="K" horiz-adv-x="954" d="M133 0v1475h25v-1475h-25zM178 743l680 732h31l-678 -730l723 -745h-35z" />
<glyph unicode="L" horiz-adv-x="843" d="M133 0v1475h25v-1452h676v-23h-701z" />
<glyph unicode="M" horiz-adv-x="1595" d="M123 0l84 1475h37l553 -1432l569 1432h37l70 -1475h-25l-68 1452l-569 -1432h-29l-553 1432l-82 -1452h-24z" />
<glyph unicode="N" horiz-adv-x="1198" d="M133 0v1475h39l868 -1452v1452h25v-1475h-39l-868 1452v-1452h-25z" />
<glyph unicode="O" horiz-adv-x="1286" d="M82 737q0 360 141.5 559t419.5 199t419.5 -199t141.5 -559q0 -237 -60.5 -405t-187.5 -260t-313 -92t-313 92t-187.5 260t-60.5 405zM106 737q0 -117 15 -218t53 -198.5t97 -166t154.5 -110.5t217.5 -42t217.5 42t154.5 110.5t97 166t53 198.5t15 218t-15 218.5 t-53 198.5t-97 166t-154.5 111t-217.5 42t-217.5 -42t-154.5 -111t-97 -166t-53 -198.5t-15 -218.5z" />
<glyph unicode="P" horiz-adv-x="942" d="M133 0v1475h139q315 0 456.5 -112.5t141.5 -330.5t-141.5 -331t-456.5 -113h-114v-588h-25zM158 610h114q296 0 435 105.5t139 316.5q0 210 -139 315t-435 105h-114v-842z" />
<glyph unicode="Q" horiz-adv-x="1286" d="M82 737q0 360 141.5 559t419.5 199t419.5 -199t141.5 -559q0 -351 -135.5 -549.5t-400.5 -207.5q6 -52 26.5 -100t57.5 -91.5t98.5 -69.5t140.5 -26l-6 -23q-135 0 -227 81t-115 229q-186 0 -313 92t-187.5 260t-60.5 405zM106 737q0 -117 15 -218t53 -198.5t97 -166 t154.5 -110.5t217.5 -42t217.5 42t154.5 110.5t97 166t53 198.5t15 218t-15 218.5t-53 198.5t-97 166t-154.5 111t-217.5 42t-217.5 -42t-154.5 -111t-97 -166t-53 -198.5t-15 -218.5z" />
<glyph unicode="R" horiz-adv-x="1019" d="M133 0v1475h139q598 0 598 -422q0 -154 -87 -264t-253 -134l449 -655h-31l-444 651q-23 -2 -66 -2h-280v-649h-25zM158 672h291q190 0 293.5 108t103.5 273q0 399 -574 399h-114v-780z" />
<glyph unicode="S" horiz-adv-x="956" d="M72 84l10 20q163 -102 346 -102q193 0 307.5 102.5t114.5 276.5q0 51 -11.5 93.5t-27.5 73t-46.5 57t-56.5 43.5t-69.5 34.5t-73 27t-78.5 23.5q-157 46 -219 79q-144 76 -170 224q-6 36 -6 78q0 190 112.5 285.5t293.5 95.5q83 0 170 -20t153 -54l-10 -20 q-145 72 -313 72q-57 0 -108.5 -10t-102.5 -35.5t-87.5 -64.5t-59.5 -103t-23 -146q0 -52 11 -95t29 -74t47 -57.5t58.5 -44t70 -34t74 -27t78.5 -23.5q7 -2 11 -3q52 -15 81.5 -24.5t75.5 -28t72.5 -36t58.5 -46t49 -61.5t29 -78.5t12 -100.5q0 -132 -61.5 -224.5 t-160 -134.5t-224.5 -42q-92 0 -191 29t-165 75z" />
<glyph unicode="T" horiz-adv-x="970" d="M10 1452v23h951v-23h-463v-1452h-25v1452h-463z" />
<glyph unicode="U" horiz-adv-x="1198" d="M129 623v852h25v-852q0 -330 97.5 -475.5t342.5 -145.5q238 0 344 151t106 470v852h25v-852q0 -330 -112.5 -486.5t-362.5 -156.5q-133 0 -222 37t-143 118.5t-77 199t-23 288.5z" />
<glyph unicode="V" horiz-adv-x="1091" d="M10 1475h27l510 -1452l510 1452h24l-518 -1475h-35z" />
<glyph unicode="W" horiz-adv-x="1689" d="M31 1475h26l383 -1452l387 1431h37l363 -1431l405 1452h27l-412 -1475h-39l-362 1432l-387 -1432h-39z" />
<glyph unicode="X" horiz-adv-x="1054" d="M31 0l481 795l-416 680h29l403 -660l400 660h26l-411 -682l481 -793h-29l-469 772l-469 -772h-26z" />
<glyph unicode="Y" horiz-adv-x="1009" d="M10 1475h29l461 -879l473 879h26l-487 -906v-569h-25v569z" />
<glyph unicode="Z" horiz-adv-x="946" d="M20 0v23l848 1429h-800v23h827v-23l-848 -1429h879v-23h-906z" />
<glyph unicode="[" horiz-adv-x="468" d="M164 -389v1925h285v-23h-261v-1880h261v-22h-285z" />
<glyph unicode="\" horiz-adv-x="610" d="M0 1536h25l585 -1649h-24z" />
<glyph unicode="]" horiz-adv-x="468" d="M20 -367h261v1880h-261v23h285v-1925h-285v22z" />
<glyph unicode="^" horiz-adv-x="1200" d="M164 616l420 818h32l420 -818l-22 -12l-414 807l-414 -807z" />
<glyph unicode="_" horiz-adv-x="1024" d="M0 -141h1024v-23h-1024v23z" />
<glyph unicode="`" horiz-adv-x="614" d="M170 1485l18 16l254 -291l-16 -16z" />
<glyph unicode="a" horiz-adv-x="878" d="M51 266q0 72 23.5 128.5t68 93t98 61.5t124 37t134 17t140.5 5h92v142q0 155 -72 244t-217 89q-141 0 -301 -73l-10 22q162 74 311 74q66 0 120.5 -19t99 -59.5t69.5 -113.5t25 -173v-757l-25 -4v178q-146 -178 -373 -178q-139 0 -223 73.5t-84 212.5zM76 266 q0 -125 77.5 -194.5t204.5 -69.5q231 0 373 191v393h-92q-56 0 -101.5 -2t-106 -9.5t-107.5 -20.5t-95.5 -37.5t-80.5 -57t-52 -82t-20 -111.5z" />
<glyph unicode="b" horiz-adv-x="956" d="M123 -20v1572l24 4v-606q149 156 340 156q96 0 171.5 -44t121.5 -118.5t70 -168t24 -197.5q0 -97 -18.5 -185t-57 -163.5t-94.5 -131t-135 -87t-174 -31.5q-137 0 -248 51v-51h-24zM147 57q110 -55 248 -55q90 0 165 31t128 85t90 127t54.5 157t17.5 176q0 80 -14 153.5 t-43.5 137.5t-71.5 111.5t-102 75t-132 27.5q-97 0 -184.5 -44.5t-155.5 -120.5v-861z" />
<glyph unicode="c" horiz-adv-x="831" d="M82 532q0 164 49.5 292t152.5 205t246 77q133 0 246 -55l-10 -21q-117 53 -236 53q-137 0 -234.5 -75.5t-143.5 -198t-46 -277.5q0 -82 10 -153t37.5 -142.5t70.5 -121.5t115.5 -81.5t166.5 -31.5q80 0 157.5 20.5t129.5 55.5l8 -23q-117 -75 -297 -75 q-203 0 -312.5 135.5t-109.5 416.5z" />
<glyph unicode="d" horiz-adv-x="954" d="M82 492q0 94 18 182t57 167t95.5 137.5t139 93t181.5 34.5q140 0 234 -51v497l24 4v-1572l-24 -4v155q-133 -155 -326 -155q-87 0 -156.5 29t-114 77t-74 115t-42 138.5t-12.5 152.5zM106 492q0 -73 10.5 -139.5t38 -131.5t68.5 -112.5t107.5 -77t150.5 -29.5 q107 0 191 49t135 117v862q-103 53 -234 53q-95 0 -174 -33.5t-132.5 -90.5t-90.5 -133.5t-53.5 -160t-16.5 -173.5z" />
<glyph unicode="e" horiz-adv-x="921" d="M82 532q0 259 113 416.5t297 157.5q111 0 191 -62t118.5 -167t38.5 -242q0 -35 -2 -62h-732v-38q0 -87 11.5 -161.5t39.5 -144.5t72.5 -119t115 -78.5t161.5 -29.5q172 0 287 76l8 -23q-119 -75 -297 -75q-212 0 -317 142t-105 410zM109 596h706v27q0 120 -26 210.5 t-72 144t-102.5 79.5t-122.5 26q-158 0 -264.5 -132.5t-118.5 -354.5z" />
<glyph unicode="f" horiz-adv-x="434" d="M49 1063v22h135v89q0 183 66 282.5t219 99.5q57 0 98 -16l-6 -20q-41 14 -92 14q-74 0 -125.5 -25.5t-80.5 -74.5t-41.5 -112.5t-12.5 -147.5v-89h285v-22h-285v-1063h-25v1063h-135z" />
<glyph unicode="g" horiz-adv-x="894" d="M72 -346l10 22q62 -38 157 -61t195 -23q58 0 112.5 8t109 28t94.5 50.5t65 78.5t25 108q0 50 -18.5 87t-45 57.5t-63 32.5t-65 15.5t-58.5 3.5h-234q-31 0 -51.5 1t-54.5 5t-56.5 14t-45.5 25.5t-34.5 42.5t-11.5 62q0 117 154 178q-137 90 -137 336q0 178 77.5 279.5 t239.5 101.5q145 0 228 -86h200v-23h-182q72 -100 72 -272q0 -178 -78 -280.5t-240 -102.5q-88 0 -155 33q-154 -52 -154 -164q0 -30 11 -52.5t32.5 -35.5t42 -21t52 -11.5t48.5 -4t45 -0.5h232q129 0 201.5 -55.5t72.5 -165.5q0 -80 -38.5 -140t-103.5 -92.5t-137 -47.5 t-151 -15q-104 0 -201.5 23t-160.5 61zM143 725q0 -181 76 -270.5t217 -89.5t217 89.5t76 270.5t-76 269.5t-217 88.5t-217 -88.5t-76 -269.5z" />
<glyph unicode="h" horiz-adv-x="968" d="M123 0v1552l24 4v-606q169 156 359 156q160 0 250 -100.5t90 -290.5v-715h-25v707q0 190 -84.5 283t-236.5 93q-186 0 -353 -163v-920h-24z" />
<glyph unicode="i" horiz-adv-x="311" d="M123 1358q0 33 33 33q32 0 32 -33t-32 -33q-33 0 -33 33zM143 0v1085h25v-1085h-25z" />
<glyph unicode="j" horiz-adv-x="311" d="M-121 -408q264 53 264 338v1155h25v-1155q0 -156 -72 -243t-211 -117zM123 1358q0 33 33 33q32 0 32 -33t-32 -33q-33 0 -33 33z" />
<glyph unicode="k" horiz-adv-x="776" d="M123 0v1552l24 4v-1556h-24zM168 555l532 530h35l-532 -528l563 -557h-37z" />
<glyph unicode="l" horiz-adv-x="393" d="M143 279v1273l25 4v-1277q0 -144 45.5 -210.5t136.5 -66.5q33 0 60 6v-22q-24 -6 -60 -6q-110 0 -158.5 74.5t-48.5 224.5z" />
<glyph unicode="m" horiz-adv-x="1593" d="M123 0v1102l24 4v-156q169 156 353 156q194 0 266 -160q173 160 362 160q162 0 252 -100.5t90 -292.5v-713h-24v707q0 190 -85 283t-237 93q-181 0 -348 -159q33 -85 33 -209v-715h-25v707q0 376 -290 376q-180 0 -347 -163v-920h-24z" />
<glyph unicode="n" horiz-adv-x="968" d="M123 0v1102l24 4v-156q169 156 359 156q160 0 250 -100.5t90 -290.5v-715h-25v707q0 190 -84.5 283t-236.5 93q-186 0 -353 -163v-920h-24z" />
<glyph unicode="o" horiz-adv-x="999" d="M82 543q0 272 103 417.5t315 145.5t315 -145.5t103 -417.5t-103 -417.5t-315 -145.5t-315 145.5t-103 417.5zM106 543q0 -541 394 -541q393 0 393 541q0 540 -393 540q-394 0 -394 -540z" />
<glyph unicode="p" horiz-adv-x="956" d="M123 -410v1512l24 4v-156q149 156 340 156q96 0 171.5 -44t121.5 -118.5t70 -168t24 -197.5q0 -127 -31 -234.5t-90.5 -189.5t-155 -128t-216.5 -46q-127 0 -234 40v-430h-24zM147 47q102 -45 234 -45q115 0 206 45.5t147.5 125.5t86 183t29.5 222q0 80 -14 153.5 t-43.5 137.5t-71.5 111.5t-102 75t-132 27.5q-97 0 -184.5 -44.5t-155.5 -120.5v-871z" />
<glyph unicode="q" horiz-adv-x="954" d="M82 492q0 94 18 182t57 167t95.5 137.5t139 93t181.5 34.5q140 0 234 -51v47l24 4v-1516h-24v545q-133 -155 -326 -155q-87 0 -156.5 29t-114 77t-74 115t-42 138.5t-12.5 152.5zM106 492q0 -73 10.5 -139.5t38 -131.5t68.5 -112.5t107.5 -77t150.5 -29.5q107 0 191 49 t135 117v862q-103 53 -234 53q-95 0 -174 -33.5t-132.5 -90.5t-90.5 -133.5t-53.5 -160t-16.5 -173.5z" />
<glyph unicode="r" horiz-adv-x="606" d="M123 0v1102l24 4v-156q74 69 162 112.5t176 43.5q57 0 111 -23l-8 -24q-49 22 -105 22q-88 0 -179 -47.5t-157 -113.5v-920h-24z" />
<glyph unicode="s" horiz-adv-x="796" d="M72 53l12 21q115 -72 268 -72q89 0 157 23t107.5 62.5t59.5 86.5t20 100q0 33 -6 61.5t-20 51t-27.5 39.5t-39 32.5t-42.5 25t-50.5 21t-52 17t-55.5 15.5q-137 38 -190 67q-121 74 -123 219q0 139 93.5 211t236.5 72q134 0 244 -55l-11 -21q-108 53 -233 53 q-130 0 -217.5 -65t-87.5 -191q0 -39 9.5 -72t22 -55.5t39.5 -43.5t45 -32t57.5 -25t58.5 -19.5t65 -18.5q42 -11 66.5 -18.5t61.5 -21t59 -27.5t48 -35.5t40.5 -47t24 -60.5t9.5 -77q0 -97 -53 -165.5t-134.5 -98.5t-181.5 -30q-164 0 -280 73z" />
<glyph unicode="t" horiz-adv-x="495" d="M49 1063v22h135v314l25 8v-322h285v-22h-285v-733q0 -174 47 -251t160 -77q38 0 78 8v-22q-41 -8 -84 -8q-58 0 -100.5 19.5t-66 50t-37.5 79t-18 94t-4 107.5v733h-135z" />
<glyph unicode="u" horiz-adv-x="968" d="M123 371v714h24v-706q0 -190 85 -283.5t237 -93.5q184 0 352 164v919h25v-1101l-25 -4v155q-168 -155 -358 -155q-160 0 -250 100.5t-90 290.5z" />
<glyph unicode="v" horiz-adv-x="866" d="M10 1085h27l391 -1062l401 1062h27l-412 -1085h-34z" />
<glyph unicode="w" horiz-adv-x="1437" d="M31 1085h26l316 -1062l327 1042h37l326 -1042l317 1062h27l-324 -1085h-39l-325 1042l-328 -1042h-39z" />
<glyph unicode="x" horiz-adv-x="845" d="M31 0l377 565l-349 520h31l334 -499l334 499h28l-348 -522l377 -563h-31l-362 543l-363 -543h-28z" />
<glyph unicode="y" horiz-adv-x="866" d="M10 1085h27l403 -1028l389 1028h27l-395 -1042q-27 -72 -46 -118t-45 -101t-49.5 -89t-55 -69t-66 -53.5t-78 -30.5t-94.5 -12l-7 24q126 0 207 68q90 73 185 318l16 43z" />
<glyph unicode="z" horiz-adv-x="751" d="M31 0v23l641 1040h-611v22h639v-22l-641 -1040h662v-23h-690z" />
<glyph unicode="{" horiz-adv-x="565" d="M61 555v37q113 6 154 79.5t41 237.5v287q0 164 57.5 252t188.5 88h43v-23h-39q-123 0 -174 -80.5t-51 -240.5v-287q0 -75 -8 -128.5t-28.5 -99.5t-60 -72t-98.5 -32q59 -6 98.5 -31.5t60 -71.5t28.5 -99.5t8 -128.5v-287q0 -160 51 -241t174 -81h39v-22h-43 q-131 0 -188.5 88t-57.5 252v287q0 164 -41 237.5t-154 79.5z" />
<glyph unicode="|" d="M154 -471v2048h24v-2048h-24z" />
<glyph unicode="}" horiz-adv-x="565" d="M20 -367h39q123 0 174.5 81t51.5 241v287q0 59 4.5 104t17 87t34 70t56 46.5t82.5 23.5q-59 6 -98.5 32t-59.5 72t-28 99.5t-8 128.5v287q0 159 -51.5 240t-174.5 81h-39v23h43q131 0 188.5 -88t57.5 -252v-287q0 -164 41 -237.5t154 -79.5v-37q-113 -6 -154 -79.5 t-41 -237.5v-287q0 -164 -57.5 -252t-188.5 -88h-43v22z" />
<glyph unicode="~" horiz-adv-x="1200" d="M94 477q1 33 8 67.5t24.5 74t42.5 70t67 51t94 20.5q55 0 114 -27t110.5 -65t101.5 -76t105.5 -65t106.5 -27q59 0 102.5 28.5t65 73t31.5 83t12 75.5h25q-1 -33 -8 -67.5t-24.5 -74t-42.5 -70t-67 -51t-94 -20.5q-56 0 -115 27t-110 65t-101.5 76t-105.5 65t-106 27 q-59 0 -102.5 -28.5t-65 -73t-31.5 -83t-12 -75.5h-25z" />
<glyph unicode="&#xa1;" d="M133 1063q0 33 33 33t33 -33t-33 -33t-33 33zM154 -389v1171h24v-1171h-24z" />
<glyph unicode="&#xa2;" horiz-adv-x="987" d="M145 721q0 151 44 271t135 198t219 92v193h24v-191h27q133 0 246 -55l-11 -21q-120 54 -235 54q-103 0 -185 -42.5t-133.5 -117t-78.5 -171.5t-27 -210q0 -80 10 -149.5t37 -140t70.5 -119.5t115.5 -80t166 -31q80 0 157.5 20t129.5 55l8 -22q-119 -76 -297 -76v-198h-24 v198q-398 19 -398 543z" />
<glyph unicode="&#xa3;" horiz-adv-x="987" d="M133 0v23q109 67 157 201t48 302q0 90 -14 193h-158v22h156q-23 193 -23 287q0 201 97.5 313.5t260.5 112.5q105 0 185 -53l-13 -21q-77 52 -172 52q-48 0 -92.5 -11.5t-89 -40.5t-77.5 -73.5t-53.5 -115.5t-20.5 -161q0 -91 22 -289h383v-22h-381q14 -110 14 -195 q0 -162 -44 -295.5t-146 -205.5h748v-23h-787z" />
<glyph unicode="&#xa4;" horiz-adv-x="987" d="M68 336l182 182q-82 92 -82 221q0 130 82 222l-182 182l16 18l182 -182q92 86 228 86q133 0 225 -86l184 182l17 -18l-183 -180q82 -92 82 -224q0 -129 -82 -221l183 -182l-17 -19l-182 183q-89 -86 -227 -86q-139 0 -228 86l-182 -183zM193 739q0 -131 85.5 -217 t215.5 -86t215.5 86t85.5 217t-85.5 217t-215.5 86t-215.5 -86t-85.5 -217z" />
<glyph unicode="&#xa5;" horiz-adv-x="987" d="M53 1434h29l407 -697l418 697h27l-418 -697h295v-22h-309v-252h309v-23h-309v-440h-25v440h-309v23h309v252h-309v22h295z" />
<glyph unicode="&#xa6;" d="M154 -369v789h24v-789h-24zM154 686v789h24v-789h-24z" />
<glyph unicode="&#xa7;" horiz-adv-x="927" d="M76 750q0 164 178 270q-107 75 -107 199q0 87 51.5 151.5t131.5 94.5t176 30q154 0 264 -63l-10 -21q-47 27 -117 44.5t-137 17.5q-62 0 -120 -15.5t-106.5 -45t-78 -80t-29.5 -113.5q0 -60 22.5 -103.5t82 -77t95 -47.5t127.5 -43q2 -1 3.5 -1.5t3.5 -1t4 -1.5 q64 -20 104.5 -35t90.5 -43.5t78.5 -60t48.5 -81.5t20 -112q0 -173 -154 -274q103 -84 103 -203q0 -58 -21.5 -106.5t-58.5 -82.5t-86.5 -58t-105.5 -35t-115 -11q-75 0 -155.5 23.5t-129.5 60.5l10 21q56 -37 130.5 -59.5t144.5 -22.5q171 0 266.5 78t95.5 192q0 51 -22 95 t-51.5 71.5t-79.5 54.5t-85 40t-91 32t-76 27q-32 12 -49 19t-49 21t-51 26t-45 30t-41.5 37.5t-30.5 44t-22 54t-7 63.5zM100 750q0 -63 31 -112.5t79.5 -79.5t114 -57.5t126.5 -46.5t125.5 -46t103.5 -56q147 109 147 260q0 70 -27 123t-68.5 83.5t-101.5 56.5t-116.5 42 t-124 40t-113.5 49q-176 -97 -176 -256z" />
<glyph unicode="&#xa8;" horiz-adv-x="614" d="M121 1358q0 33 33 33q32 0 32 -33t-32 -33q-33 0 -33 33zM428 1358q0 33 33 33t33 -33t-33 -33t-33 33z" />
<glyph unicode="&#xa9;" horiz-adv-x="1372" d="M82 735q0 278 164 445.5t440 167.5t440 -167.5t164 -445.5t-164 -446t-440 -168t-440 168t-164 446zM106 735q0 -268 159.5 -430t420.5 -162t420.5 162t159.5 430t-159 429t-421 161t-421 -161t-159 -429zM403 741q0 169 88 268t242 99q81 0 160 -31l-10 -20 q-65 28 -150 28q-146 0 -225.5 -94t-79.5 -250q0 -149 74.5 -247.5t212.5 -98.5q99 0 184 45l8 -22q-95 -45 -192 -45q-150 0 -231 104t-81 264z" />
<glyph unicode="&#xaa;" horiz-adv-x="630" d="M51 805q0 58 23 100.5t57.5 66.5t88.5 38t103 18t113 4h68v88q0 107 -50 166.5t-145 59.5q-93 0 -198 -48l-11 21q106 49 209 49q96 0 157.5 -57.5t61.5 -184.5v-505l-24 -5v121q-105 -121 -252 -121q-92 0 -146.5 48t-54.5 141zM76 805q0 -81 48.5 -123.5t127.5 -42.5 q155 0 252 131v240h-62q-41 0 -69 -1t-69.5 -5t-70 -12t-60.5 -23t-51.5 -36t-32.5 -54t-13 -74z" />
<glyph unicode="&#xab;" horiz-adv-x="776" d="M82 553l324 455l20 -15l-313 -440l313 -440l-20 -15zM360 553l324 455l21 -15l-314 -440l314 -440l-21 -15z" />
<glyph unicode="&#xac;" horiz-adv-x="1200" d="M72 727v23h1036v-480h-25v457h-1011z" />
<glyph unicode="&#xad;" horiz-adv-x="688" d="M61 569v23h566v-23h-566z" />
<glyph unicode="&#xae;" horiz-adv-x="901" d="M82 1090q0 168 101 271t268 103t267.5 -103t100.5 -271t-101 -273.5t-267 -105.5t-267.5 105.5t-101.5 273.5zM106 1090q0 -161 97 -259t248 -98t247.5 98t96.5 259q0 160 -96 256t-248 96t-248.5 -96t-96.5 -256zM338 879v430h100q65 0 105.5 -30.5t40.5 -90.5 q0 -40 -24.5 -72.5t-65.5 -44.5l133 -192h-31l-129 186h-105v-186h-24zM362 1087h93q38 0 71 27t33 74q0 98 -127 98h-70v-199z" />
<glyph unicode="&#xaf;" horiz-adv-x="614" d="M66 1327v23h485v-23h-485z" />
<glyph unicode="&#xb0;" horiz-adv-x="712" d="M61 1137q0 129 86 211t209 82t209 -82t86 -211t-86 -211t-209 -82t-209 82t-86 211zM86 1137q0 -107 73 -189t197 -82t197.5 82t73.5 189t-73.5 188.5t-197.5 81.5t-197 -81.5t-73 -188.5z" />
<glyph unicode="&#xb1;" horiz-adv-x="1200" d="M82 37v22h1036v-22h-1036zM82 721v22h506v490h24v-490h506v-22h-506v-500h-24v500h-506z" />
<glyph unicode="&#xb2;" horiz-adv-x="559" d="M61 963v24l250 285q133 152 133 303q0 83 -41.5 136.5t-121.5 53.5q-95 0 -172 -69l-15 18q83 74 187 74q92 0 140 -59t48 -154q0 -157 -141 -320l-236 -268h385v-24h-416z" />
<glyph unicode="&#xb3;" horiz-adv-x="565" d="M51 1004l10 20q71 -53 175 -53q99 0 161 59t62 164q0 94 -54.5 141t-125.5 47h-105v23h102q64 0 111 52t47 130q0 91 -50.5 134.5t-123.5 43.5q-91 0 -172 -45l-10 21q89 47 182 47q94 0 146.5 -53.5t52.5 -147.5q0 -78 -39.5 -128t-87.5 -62q68 -14 109.5 -68t41.5 -135 q0 -115 -68 -180.5t-179 -65.5q-99 0 -185 56z" />
<glyph unicode="&#xb4;" horiz-adv-x="614" d="M172 1210l254 291l18 -16l-256 -291z" />
<glyph unicode="&#xb5;" horiz-adv-x="978" d="M123 -33v1118h24v-706q0 -190 85 -283.5t237 -93.5q184 0 352 164v919h25v-942q0 -68 15.5 -104.5t62.5 -36.5q24 0 53 10v-22q-29 -10 -59 -10q-97 0 -97 155q-168 -155 -358 -155q-120 0 -202 57t-114 170v-238q0 -220 17 -379h-25q-16 151 -16 377z" />
<glyph unicode="&#xb6;" horiz-adv-x="843" d="M61 1135q0 167 109 253.5t324 86.5h196v-1711h-24v1688h-148v-1688h-24v1031q-215 0 -324 86.5t-109 253.5z" />
<glyph unicode="&#xb7;" horiz-adv-x="290" d="M113 596q0 33 32 33q33 0 33 -33t-33 -33q-32 0 -32 33z" />
<glyph unicode="&#xb8;" horiz-adv-x="614" d="M100 -377l11 19q60 -41 129 -41q86 0 131 56.5t45 137.5q0 128 -80 201h29q35 -35 55 -88.5t20 -112.5q0 -91 -52.5 -154t-147.5 -63q-78 0 -140 45z" />
<glyph unicode="&#xb9;" horiz-adv-x="370" d="M0 1751v23h217v-811h-24v788h-193z" />
<glyph unicode="&#xba;" horiz-adv-x="696" d="M72 993q0 184 69 279.5t207 95.5t207.5 -96t69.5 -279q0 -184 -69.5 -280.5t-207.5 -96.5t-207 96.5t-69 280.5zM96 993q0 -354 252 -354t252 354q0 353 -252 353t-252 -353z" />
<glyph unicode="&#xbb;" horiz-adv-x="776" d="M72 113l313 440l-313 440l20 15l324 -455l-324 -455zM350 113l314 440l-314 440l21 15l323 -455l-323 -455z" />
<glyph unicode="&#xbc;" horiz-adv-x="1320" d="M82 1417v23h217v-811h-25v788h-192zM170 -51l897 1546l20 -12l-897 -1546zM707 158v22l378 631h39v-631h115v-22h-115v-158h-24v158h-393zM733 180h367v611z" />
<glyph unicode="&#xbd;" horiz-adv-x="1320" d="M49 1417v23h217v-811h-24v788h-193zM137 -51l897 1546l21 -12l-897 -1546zM840 0v25l250 284q133 152 133 303q0 83 -42 137t-122 54q-94 0 -172 -70l-15 19q82 73 187 73q92 0 140 -59t48 -154q0 -156 -141 -319l-236 -268h385v-25h-415z" />
<glyph unicode="&#xbe;" horiz-adv-x="1320" d="M47 670l10 20q71 -53 174 -53q99 0 161.5 59t62.5 164q0 94 -55 141.5t-126 47.5h-104v22h102q64 0 111 52t47 130q0 91 -50.5 135t-123.5 44q-89 0 -172 -46l-10 21q89 47 182 47q94 0 146.5 -53.5t52.5 -147.5q0 -78 -39.5 -128t-87.5 -62q68 -14 109.5 -68t41.5 -135 q0 -115 -68.5 -180.5t-179.5 -65.5q-98 0 -184 56zM215 -51l897 1546l21 -12l-897 -1546zM731 158v22l379 631h39v-631h115v-22h-115v-158h-25v158h-393zM758 180h366v611z" />
<glyph unicode="&#xbf;" horiz-adv-x="786" d="M82 -70q0 89 21.5 157t56.5 112t77 83t84.5 81.5t78 94.5t58.5 134.5t25 189.5h25q-3 -111 -26.5 -196.5t-59.5 -138.5t-78 -95.5t-84 -80t-76.5 -80.5t-56 -109t-21.5 -152q0 -58 17 -112t51 -101t92.5 -75.5t132.5 -28.5q171 0 332 123l14 -19q-167 -127 -346 -127 q-79 0 -141.5 29t-99.5 78t-56.5 108.5t-19.5 124.5zM463 1063q0 33 33 33q32 0 32 -33t-32 -33q-33 0 -33 33z" />
<glyph unicode="&#xc0;" horiz-adv-x="1112" d="M10 0l529 1475h34l529 -1475h-27l-196 545h-648l-196 -545h-25zM238 567h634l-317 885zM291 1778l12 22l365 -203l-11 -20z" />
<glyph unicode="&#xc1;" horiz-adv-x="1112" d="M10 0l529 1475h34l529 -1475h-27l-196 545h-648l-196 -545h-25zM238 567h634l-317 885zM479 1597l365 203l12 -22l-367 -201z" />
<glyph unicode="&#xc2;" horiz-adv-x="1112" d="M10 0l529 1475h34l529 -1475h-27l-196 545h-648l-196 -545h-25zM238 567h634l-317 885zM305 1587l236 205h28l236 -205l-14 -18l-236 203l-236 -203z" />
<glyph unicode="&#xc3;" horiz-adv-x="1112" d="M10 0l529 1475h34l529 -1475h-27l-196 545h-648l-196 -545h-25zM238 567h634l-317 885zM291 1653q10 61 45.5 107t91.5 46q33 0 70 -20t64 -43.5t61 -43.5t63 -20q47 0 75 40.5t38 90.5h22q-10 -61 -45.5 -107t-91.5 -46q-33 0 -70 20t-64 43.5t-61 43.5t-63 20 q-47 0 -75 -40.5t-38 -90.5h-22z" />
<glyph unicode="&#xc4;" horiz-adv-x="1112" d="M10 0l529 1475h34l529 -1475h-27l-196 545h-648l-196 -545h-25zM238 567h634l-317 885zM358 1704q0 33 33 33t33 -33t-33 -33t-33 33zM686 1704q0 33 33 33t33 -33t-33 -33t-33 33z" />
<glyph unicode="&#xc5;" horiz-adv-x="1112" d="M10 0l529 1475h34l529 -1475h-27l-196 545h-648l-196 -545h-25zM238 567h634l-317 885zM393 1710q0 70 45.5 115t116.5 45t116.5 -45t45.5 -115t-45.5 -115t-116.5 -45t-116.5 45t-45.5 115zM418 1710q0 -62 38 -99.5t99 -37.5t99 37.5t38 99.5t-38 99.5t-99 37.5 t-99 -37.5t-38 -99.5z" />
<glyph unicode="&#xc6;" horiz-adv-x="1712" d="M0 0l731 1475h899v-23h-655v-692h526v-23h-526v-714h696v-23h-721v737h-559l-364 -737h-27zM403 760h547v692h-205z" />
<glyph unicode="&#xc7;" horiz-adv-x="1069" d="M82 737q0 160 42 297.5t119.5 240.5t196.5 161.5t265 58.5q175 0 299 -61l-11 -21q-52 26 -130 43t-158 17q-123 0 -224.5 -42.5t-170 -114t-115.5 -167.5t-68 -199.5t-21 -212.5q0 -114 17.5 -216t60 -198.5t106.5 -166.5t165 -112t229 -42q199 0 344 90l10 -20 q-128 -81 -323 -92q61 -74 61 -185q0 -90 -53 -153.5t-148 -63.5q-77 0 -139 45l10 19q60 -41 129 -41q86 0 131.5 56.5t45.5 137.5q0 111 -64 185h-8q-196 0 -331.5 95t-201 263.5t-65.5 398.5z" />
<glyph unicode="&#xc8;" horiz-adv-x="894" d="M133 0v1475h680v-23h-655v-664h526v-22h-526v-743h696v-23h-721zM221 1778l12 22l365 -203l-10 -20z" />
<glyph unicode="&#xc9;" horiz-adv-x="894" d="M133 0v1475h680v-23h-655v-664h526v-22h-526v-743h696v-23h-721zM340 1597l365 203l12 -22l-367 -201z" />
<glyph unicode="&#xca;" horiz-adv-x="894" d="M133 0v1475h680v-23h-655v-664h526v-22h-526v-743h696v-23h-721zM233 1587l236 205h29l235 -205l-14 -18l-236 203l-235 -203z" />
<glyph unicode="&#xcb;" horiz-adv-x="894" d="M133 0v1475h680v-23h-655v-664h526v-22h-526v-743h696v-23h-721zM287 1704q0 33 32 33q33 0 33 -33t-33 -33q-32 0 -32 33zM614 1704q0 33 33 33t33 -33t-33 -33t-33 33z" />
<glyph unicode="&#xcc;" d="M-102 1778l12 22l364 -203l-10 -20zM154 0v1475h24v-1475h-24z" />
<glyph unicode="&#xcd;" d="M63 1597l365 203l12 -22l-366 -201zM154 0v1475h24v-1475h-24z" />
<glyph unicode="&#xce;" d="M-84 1587l236 205h28l236 -205l-15 -18l-235 203l-236 -203zM154 0v1475h24v-1475h-24z" />
<glyph unicode="&#xcf;" d="M-31 1704q0 33 33 33t33 -33t-33 -33t-33 33zM154 0v1475h24v-1475h-24zM297 1704q0 33 33 33q32 0 32 -33t-32 -33q-33 0 -33 33z" />
<glyph unicode="&#xd0;" horiz-adv-x="1259" d="M14 766v22h170v687h287q364 0 535.5 -185.5t171.5 -552.5t-171.5 -552t-535.5 -185h-287v766h-170zM209 23h262q185 0 318.5 49.5t212 145t115 223t36.5 296.5q0 355 -165 535t-517 180h-262v-664h393v-22h-393v-743z" />
<glyph unicode="&#xd1;" horiz-adv-x="1198" d="M133 0v1475h39l868 -1452v1452h25v-1475h-39l-868 1452v-1452h-25zM334 1649q10 61 45.5 107t91.5 46q33 0 70 -20t64 -43.5t61 -43.5t63 -20q47 0 75 40.5t38 90.5h22q-10 -61 -45.5 -107t-91.5 -46q-33 0 -70 20t-64 43.5t-61 43.5t-63 20q-47 0 -75 -40.5t-38 -90.5 h-22z" />
<glyph unicode="&#xd2;" horiz-adv-x="1286" d="M82 737q0 360 141.5 559t419.5 199t419.5 -199t141.5 -559q0 -237 -60.5 -405t-187.5 -260t-313 -92t-313 92t-187.5 260t-60.5 405zM106 737q0 -117 15 -218t53 -198.5t97 -166t154.5 -110.5t217.5 -42t217.5 42t154.5 110.5t97 166t53 198.5t15 218t-15 218.5 t-53 198.5t-97 166t-154.5 111t-217.5 42t-217.5 -42t-154.5 -111t-97 -166t-53 -198.5t-15 -218.5zM393 1778l13 22l364 -203l-10 -20z" />
<glyph unicode="&#xd3;" horiz-adv-x="1286" d="M82 737q0 360 141.5 559t419.5 199t419.5 -199t141.5 -559q0 -237 -60.5 -405t-187.5 -260t-313 -92t-313 92t-187.5 260t-60.5 405zM106 737q0 -117 15 -218t53 -198.5t97 -166t154.5 -110.5t217.5 -42t217.5 42t154.5 110.5t97 166t53 198.5t15 218t-15 218.5 t-53 198.5t-97 166t-154.5 111t-217.5 42t-217.5 -42t-154.5 -111t-97 -166t-53 -198.5t-15 -218.5zM557 1597l365 203l12 -22l-367 -201z" />
<glyph unicode="&#xd4;" horiz-adv-x="1286" d="M82 737q0 360 141.5 559t419.5 199t419.5 -199t141.5 -559q0 -237 -60.5 -405t-187.5 -260t-313 -92t-313 92t-187.5 260t-60.5 405zM106 737q0 -117 15 -218t53 -198.5t97 -166t154.5 -110.5t217.5 -42t217.5 42t154.5 110.5t97 166t53 198.5t15 218t-15 218.5 t-53 198.5t-97 166t-154.5 111t-217.5 42t-217.5 -42t-154.5 -111t-97 -166t-53 -198.5t-15 -218.5zM393 1587l236 205h28l236 -205l-14 -18l-236 203l-235 -203z" />
<glyph unicode="&#xd5;" horiz-adv-x="1286" d="M82 737q0 360 141.5 559t419.5 199t419.5 -199t141.5 -559q0 -237 -60.5 -405t-187.5 -260t-313 -92t-313 92t-187.5 260t-60.5 405zM106 737q0 -117 15 -218t53 -198.5t97 -166t154.5 -110.5t217.5 -42t217.5 42t154.5 110.5t97 166t53 198.5t15 218t-15 218.5 t-53 198.5t-97 166t-154.5 111t-217.5 42t-217.5 -42t-154.5 -111t-97 -166t-53 -198.5t-15 -218.5zM379 1649q10 61 45.5 107t91.5 46q33 0 70 -20t64 -43.5t61 -43.5t63 -20q47 0 75 40.5t38 90.5h22q-10 -61 -45.5 -107t-91.5 -46q-33 0 -70 20t-64 43.5t-61 43.5t-63 20 q-47 0 -75 -40.5t-38 -90.5h-22z" />
<glyph unicode="&#xd6;" horiz-adv-x="1286" d="M82 737q0 360 141.5 559t419.5 199t419.5 -199t141.5 -559q0 -237 -60.5 -405t-187.5 -260t-313 -92t-313 92t-187.5 260t-60.5 405zM106 737q0 -117 15 -218t53 -198.5t97 -166t154.5 -110.5t217.5 -42t217.5 42t154.5 110.5t97 166t53 198.5t15 218t-15 218.5 t-53 198.5t-97 166t-154.5 111t-217.5 42t-217.5 -42t-154.5 -111t-97 -166t-53 -198.5t-15 -218.5zM446 1704q0 33 33 33t33 -33t-33 -33t-33 33zM774 1704q0 33 33 33t33 -33t-33 -33t-33 33z" />
<glyph unicode="&#xd7;" horiz-adv-x="1200" d="M82 55l502 508l-502 508l16 19l502 -510l502 510l16 -19l-502 -508l502 -508l-16 -18l-502 508l-502 -508z" />
<glyph unicode="&#xd8;" horiz-adv-x="1286" d="M82 737q0 360 141.5 559t419.5 199q225 0 363 -135l124 217l21 -12l-129 -222q182 -194 182 -606q0 -237 -60.5 -405t-187.5 -260t-313 -92q-210 0 -342 114l-131 -227l-20 12l133 232q-201 189 -201 626zM106 737q0 -420 189 -606l698 1208q-134 134 -350 134 q-122 0 -217.5 -42t-154.5 -111t-97 -166t-53 -198.5t-15 -218.5zM313 115q129 -113 330 -113q122 0 217.5 42t154.5 110.5t97 166t53 198.5t15 218q0 395 -170 584z" />
<glyph unicode="&#xd9;" horiz-adv-x="1198" d="M129 623v852h25v-852q0 -330 97.5 -475.5t342.5 -145.5q238 0 344 151t106 470v852h25v-852q0 -330 -112.5 -486.5t-362.5 -156.5q-133 0 -222 37t-143 118.5t-77 199t-23 288.5zM338 1778l12 22l365 -203l-10 -20z" />
<glyph unicode="&#xda;" horiz-adv-x="1198" d="M129 623v852h25v-852q0 -330 97.5 -475.5t342.5 -145.5q238 0 344 151t106 470v852h25v-852q0 -330 -112.5 -486.5t-362.5 -156.5q-133 0 -222 37t-143 118.5t-77 199t-23 288.5zM502 1597l364 203l13 -22l-367 -201z" />
<glyph unicode="&#xdb;" horiz-adv-x="1198" d="M129 623v852h25v-852q0 -330 97.5 -475.5t342.5 -145.5q238 0 344 151t106 470v852h25v-852q0 -330 -112.5 -486.5t-362.5 -156.5q-133 0 -222 37t-143 118.5t-77 199t-23 288.5zM348 1587l236 205h28l236 -205l-14 -18l-236 203l-236 -203z" />
<glyph unicode="&#xdc;" horiz-adv-x="1198" d="M129 623v852h25v-852q0 -330 97.5 -475.5t342.5 -145.5q238 0 344 151t106 470v852h25v-852q0 -330 -112.5 -486.5t-362.5 -156.5q-133 0 -222 37t-143 118.5t-77 199t-23 288.5zM401 1704q0 33 33 33t33 -33t-33 -33t-33 33zM729 1704q0 33 33 33t33 -33t-33 -33t-33 33 z" />
<glyph unicode="&#xdd;" horiz-adv-x="1009" d="M10 1475h29l461 -879l473 879h26l-487 -906v-569h-25v569zM418 1597l364 203l13 -22l-367 -201z" />
<glyph unicode="&#xde;" horiz-adv-x="962" d="M133 0v1475h25v-246q123 0 224.5 -14t175.5 -38t130.5 -59.5t92.5 -76.5t59 -91.5t32 -100.5t9 -108q0 -68 -13 -125.5t-43.5 -114t-85.5 -100t-132.5 -77.5t-191.5 -52t-257 -18v-254h-25zM158 276q353 0 525.5 113.5t172.5 351.5t-172.5 351.5t-525.5 113.5v-930z" />
<glyph unicode="&#xdf;" horiz-adv-x="1030" d="M49 1063v22h135v76q0 86 16.5 155.5t52.5 124.5t98.5 85t148.5 30q85 0 148 -32t98.5 -88.5t52 -124.5t16.5 -150v-88q-153 -13 -221 -84t-68 -176q0 -63 23.5 -112t61.5 -80.5t83.5 -58l91 -53t83.5 -58t61.5 -80.5t23.5 -113q0 -139 -92.5 -208.5t-238.5 -69.5 q-89 0 -154 26l8 23q61 -27 146 -27t152 25t111 84.5t44 146.5q0 59 -23.5 105t-61.5 75.5t-83.5 55.5t-91 53.5t-83.5 60.5t-61.5 85t-23.5 120q0 127 81 197.5t208 83.5v67q0 78 -15 142t-47 117.5t-90.5 83.5t-138.5 30q-291 0 -291 -373v-1161h-25v1063h-135z" />
<glyph unicode="&#xe0;" horiz-adv-x="878" d="M51 266q0 72 23.5 128.5t68 93t98 61.5t124 37t134 17t140.5 5h92v142q0 155 -72 244t-217 89q-141 0 -301 -73l-10 22q162 74 311 74q66 0 120.5 -19t99 -59.5t69.5 -113.5t25 -173v-757l-25 -4v178q-146 -178 -373 -178q-139 0 -223 73.5t-84 212.5zM76 266 q0 -125 77.5 -194.5t204.5 -69.5q231 0 373 191v393h-92q-56 0 -101.5 -2t-106 -9.5t-107.5 -20.5t-95.5 -37.5t-80.5 -57t-52 -82t-20 -111.5zM227 1485l19 16l254 -291l-17 -16z" />
<glyph unicode="&#xe1;" horiz-adv-x="878" d="M51 266q0 72 23.5 128.5t68 93t98 61.5t124 37t134 17t140.5 5h92v142q0 155 -72 244t-217 89q-141 0 -301 -73l-10 22q162 74 311 74q66 0 120.5 -19t99 -59.5t69.5 -113.5t25 -173v-757l-25 -4v178q-146 -178 -373 -178q-139 0 -223 73.5t-84 212.5zM76 266 q0 -125 77.5 -194.5t204.5 -69.5q231 0 373 191v393h-92q-56 0 -101.5 -2t-106 -9.5t-107.5 -20.5t-95.5 -37.5t-80.5 -57t-52 -82t-20 -111.5zM381 1210l254 291l18 -16l-256 -291z" />
<glyph unicode="&#xe2;" horiz-adv-x="878" d="M51 266q0 72 23.5 128.5t68 93t98 61.5t124 37t134 17t140.5 5h92v142q0 155 -72 244t-217 89q-141 0 -301 -73l-10 22q162 74 311 74q66 0 120.5 -19t99 -59.5t69.5 -113.5t25 -173v-757l-25 -4v178q-146 -178 -373 -178q-139 0 -223 73.5t-84 212.5zM76 266 q0 -125 77.5 -194.5t204.5 -69.5q231 0 373 191v393h-92q-56 0 -101.5 -2t-106 -9.5t-107.5 -20.5t-95.5 -37.5t-80.5 -57t-52 -82t-20 -111.5zM213 1204l219 293h25l219 -293l-19 -14l-213 283l-213 -283z" />
<glyph unicode="&#xe3;" horiz-adv-x="878" d="M51 266q0 72 23.5 128.5t68 93t98 61.5t124 37t134 17t140.5 5h92v142q0 155 -72 244t-217 89q-141 0 -301 -73l-10 22q162 74 311 74q66 0 120.5 -19t99 -59.5t69.5 -113.5t25 -173v-757l-25 -4v178q-146 -178 -373 -178q-139 0 -223 73.5t-84 212.5zM76 266 q0 -125 77.5 -194.5t204.5 -69.5q231 0 373 191v393h-92q-56 0 -101.5 -2t-106 -9.5t-107.5 -20.5t-95.5 -37.5t-80.5 -57t-52 -82t-20 -111.5zM180 1288q11 61 46 107.5t91 46.5q33 0 70 -20t64 -43.5t61 -43.5t63 -20q47 0 75 40.5t38 90.5h23q-10 -61 -46 -107.5 t-92 -46.5q-33 0 -70 20t-64 43.5t-61 43.5t-63 20q-47 0 -74.5 -40.5t-37.5 -90.5h-23z" />
<glyph unicode="&#xe4;" horiz-adv-x="878" d="M51 266q0 72 23.5 128.5t68 93t98 61.5t124 37t134 17t140.5 5h92v142q0 155 -72 244t-217 89q-141 0 -301 -73l-10 22q162 74 311 74q66 0 120.5 -19t99 -59.5t69.5 -113.5t25 -173v-757l-25 -4v178q-146 -178 -373 -178q-139 0 -223 73.5t-84 212.5zM76 266 q0 -125 77.5 -194.5t204.5 -69.5q231 0 373 191v393h-92q-56 0 -101.5 -2t-106 -9.5t-107.5 -20.5t-95.5 -37.5t-80.5 -57t-52 -82t-20 -111.5zM268 1358q0 33 33 33t33 -33t-33 -33t-33 33zM575 1358q0 33 33 33t33 -33t-33 -33t-33 33z" />
<glyph unicode="&#xe5;" horiz-adv-x="878" d="M51 266q0 72 23.5 128.5t68 93t98 61.5t124 37t134 17t140.5 5h92v142q0 155 -72 244t-217 89q-141 0 -301 -73l-10 22q162 74 311 74q66 0 120.5 -19t99 -59.5t69.5 -113.5t25 -173v-757l-25 -4v178q-146 -178 -373 -178q-139 0 -223 73.5t-84 212.5zM76 266 q0 -125 77.5 -194.5t204.5 -69.5q231 0 373 191v393h-92q-56 0 -101.5 -2t-106 -9.5t-107.5 -20.5t-95.5 -37.5t-80.5 -57t-52 -82t-20 -111.5zM293 1354q0 70 45.5 114.5t116.5 44.5t116 -44.5t45 -114.5t-45 -115t-116 -45t-116.5 45t-45.5 115zM317 1354q0 -61 38 -99 t100 -38q61 0 99 37.5t38 99.5t-38 99.5t-99 37.5q-62 0 -100 -38t-38 -99z" />
<glyph unicode="&#xe6;" horiz-adv-x="1570" d="M51 262q0 62 18.5 112.5t49.5 85.5t77 61t95 41.5t111 24.5t117 12t120 3h92v148q0 155 -72 244t-217 89q-141 0 -301 -73l-10 22q162 74 311 74q65 0 119.5 -19t99.5 -60t70 -113.5t25 -170.5q37 168 140.5 265.5t244.5 97.5q166 0 257 -129.5t91 -335.5q0 -34 -2 -61 h-731v-39q0 -87 11 -162.5t39.5 -146t72.5 -120.5t114.5 -80t161.5 -30q172 0 287 76l8 -23q-119 -75 -297 -75q-273 0 -371 237q-175 -237 -434 -237q-131 0 -214 73.5t-83 208.5zM76 262q0 -121 76.5 -190.5t195.5 -69.5q131 0 240.5 66t183.5 176q-41 116 -41 288v48h-92 q-56 0 -101.5 -2t-106 -9.5t-107.5 -20t-95.5 -36.5t-80 -57t-52 -82t-20.5 -111zM756 602h708v25q0 117 -26 207t-72 143t-102.5 79.5t-122.5 26.5q-158 0 -265 -131.5t-120 -349.5z" />
<glyph unicode="&#xe7;" horiz-adv-x="831" d="M82 532q0 164 49.5 292t152.5 205t246 77q133 0 246 -55l-10 -21q-117 53 -236 53q-137 0 -234.5 -75.5t-143.5 -198t-46 -277.5q0 -82 10 -153t37.5 -142.5t70.5 -121.5t115.5 -81.5t166.5 -31.5q80 0 157.5 20.5t129.5 55.5l8 -23q-104 -66 -254 -73q63 -72 63 -187 q0 -91 -52.5 -154t-147.5 -63q-78 0 -140 45l11 19q60 -41 129 -41q86 0 131 56.5t45 137.5q0 111 -64 185h-18q-203 0 -312.5 135.5t-109.5 416.5z" />
<glyph unicode="&#xe8;" horiz-adv-x="921" d="M82 532q0 259 113 416.5t297 157.5q111 0 191 -62t118.5 -167t38.5 -242q0 -35 -2 -62h-732v-38q0 -87 11.5 -161.5t39.5 -144.5t72.5 -119t115 -78.5t161.5 -29.5q172 0 287 76l8 -23q-119 -75 -297 -75q-212 0 -317 142t-105 410zM109 596h706v27q0 120 -26 210.5 t-72 144t-102.5 79.5t-122.5 26q-158 0 -264.5 -132.5t-118.5 -354.5zM285 1485l18 16l254 -291l-16 -16z" />
<glyph unicode="&#xe9;" horiz-adv-x="921" d="M82 532q0 259 113 416.5t297 157.5q111 0 191 -62t118.5 -167t38.5 -242q0 -35 -2 -62h-732v-38q0 -87 11.5 -161.5t39.5 -144.5t72.5 -119t115 -78.5t161.5 -29.5q172 0 287 76l8 -23q-119 -75 -297 -75q-212 0 -317 142t-105 410zM109 596h706v27q0 120 -26 210.5 t-72 144t-102.5 79.5t-122.5 26q-158 0 -264.5 -132.5t-118.5 -354.5zM438 1210l254 291l19 -16l-256 -291z" />
<glyph unicode="&#xea;" horiz-adv-x="921" d="M82 532q0 259 113 416.5t297 157.5q111 0 191 -62t118.5 -167t38.5 -242q0 -35 -2 -62h-732v-38q0 -87 11.5 -161.5t39.5 -144.5t72.5 -119t115 -78.5t161.5 -29.5q172 0 287 76l8 -23q-119 -75 -297 -75q-212 0 -317 142t-105 410zM109 596h706v27q0 120 -26 210.5 t-72 144t-102.5 79.5t-122.5 26q-158 0 -264.5 -132.5t-118.5 -354.5zM260 1204l219 293h25l219 -293l-18 -14l-213 283l-213 -283z" />
<glyph unicode="&#xeb;" horiz-adv-x="921" d="M82 532q0 259 113 416.5t297 157.5q111 0 191 -62t118.5 -167t38.5 -242q0 -35 -2 -62h-732v-38q0 -87 11.5 -161.5t39.5 -144.5t72.5 -119t115 -78.5t161.5 -29.5q172 0 287 76l8 -23q-119 -75 -297 -75q-212 0 -317 142t-105 410zM109 596h706v27q0 120 -26 210.5 t-72 144t-102.5 79.5t-122.5 26q-158 0 -264.5 -132.5t-118.5 -354.5zM295 1358q0 33 33 33q32 0 32 -33t-32 -33q-33 0 -33 33zM602 1358q0 33 33 33t33 -33t-33 -33t-33 33z" />
<glyph unicode="&#xec;" horiz-adv-x="311" d="M-41 1485l18 16l254 -291l-16 -16zM143 0v1085h25v-1085h-25z" />
<glyph unicode="&#xed;" horiz-adv-x="311" d="M82 1210l254 291l18 -16l-256 -291zM143 0v1085h25v-1085h-25z" />
<glyph unicode="&#xee;" horiz-adv-x="311" d="M-76 1204l219 293h25l219 -293l-18 -14l-213 283l-213 -283zM143 0v1085h25v-1085h-25z" />
<glyph unicode="&#xef;" horiz-adv-x="311" d="M-31 1358q0 33 33 33t33 -33t-33 -33t-33 33zM143 0v1085h25v-1085h-25zM276 1358q0 33 33 33t33 -33t-33 -33t-33 33z" />
<glyph unicode="&#xf0;" horiz-adv-x="1009" d="M82 524q0 249 111 405t317 156q241 0 354 -200q-63 333 -231 501l-295 -147l-10 21l286 145q-142 129 -346 129q-24 0 -47 -2v22q27 2 47 2q219 0 371 -139l172 86l10 -20l-164 -84q93 -95 154 -244t84 -296.5t23 -305.5q0 -573 -418 -573q-208 0 -313 143t-105 401z M106 524q0 -80 10.5 -150.5t38 -140.5t70.5 -119.5t113.5 -80.5t161.5 -31q393 0 393 551q0 92 -10 197q-5 51 -20 89.5t-48 78.5q-110 145 -305 145q-103 0 -182.5 -44t-127 -120t-71 -171t-23.5 -204z" />
<glyph unicode="&#xf1;" horiz-adv-x="968" d="M123 0v1102l24 4v-156q169 156 359 156q160 0 250 -100.5t90 -290.5v-715h-25v707q0 190 -84.5 283t-236.5 93q-186 0 -353 -163v-920h-24zM219 1288q11 61 46 107.5t91 46.5q33 0 70 -20t64 -43.5t61 -43.5t63 -20q47 0 75 40.5t38 90.5h23q-10 -61 -46 -107.5 t-92 -46.5q-33 0 -70 20t-64 43.5t-61 43.5t-63 20q-47 0 -74.5 -40.5t-37.5 -90.5h-23z" />
<glyph unicode="&#xf2;" horiz-adv-x="999" d="M82 543q0 272 103 417.5t315 145.5t315 -145.5t103 -417.5t-103 -417.5t-315 -145.5t-315 145.5t-103 417.5zM106 543q0 -541 394 -541q393 0 393 541q0 540 -393 540q-394 0 -394 -540zM303 1485l19 16l253 -291l-16 -16z" />
<glyph unicode="&#xf3;" horiz-adv-x="999" d="M82 543q0 272 103 417.5t315 145.5t315 -145.5t103 -417.5t-103 -417.5t-315 -145.5t-315 145.5t-103 417.5zM106 543q0 -541 394 -541q393 0 393 541q0 540 -393 540q-394 0 -394 -540zM457 1210l254 291l18 -16l-256 -291z" />
<glyph unicode="&#xf4;" horiz-adv-x="999" d="M82 543q0 272 103 417.5t315 145.5t315 -145.5t103 -417.5t-103 -417.5t-315 -145.5t-315 145.5t-103 417.5zM106 543q0 -541 394 -541q393 0 393 541q0 540 -393 540q-394 0 -394 -540zM268 1204l219 293h25l219 -293l-18 -14l-213 283l-213 -283z" />
<glyph unicode="&#xf5;" horiz-adv-x="999" d="M82 543q0 272 103 417.5t315 145.5t315 -145.5t103 -417.5t-103 -417.5t-315 -145.5t-315 145.5t-103 417.5zM106 543q0 -541 394 -541q393 0 393 541q0 540 -393 540q-394 0 -394 -540zM236 1288q11 61 46 107.5t91 46.5q33 0 70 -20t64 -43.5t61 -43.5t63 -20 q47 0 74.5 40.5t37.5 90.5h23q-11 -61 -46 -107.5t-91 -46.5q-33 0 -70 20t-64 43.5t-61 43.5t-63 20q-47 0 -75 -40.5t-38 -90.5h-22z" />
<glyph unicode="&#xf6;" horiz-adv-x="999" d="M82 543q0 272 103 417.5t315 145.5t315 -145.5t103 -417.5t-103 -417.5t-315 -145.5t-315 145.5t-103 417.5zM106 543q0 -541 394 -541q393 0 393 541q0 540 -393 540q-394 0 -394 -540zM313 1358q0 33 33 33t33 -33t-33 -33t-33 33zM621 1358q0 33 32 33q33 0 33 -33 t-33 -33q-32 0 -32 33z" />
<glyph unicode="&#xf7;" horiz-adv-x="1200" d="M82 565v23h1036v-23h-1036zM567 193q0 32 33 32t33 -32q0 -33 -33 -33t-33 33zM567 958q0 33 33 33t33 -33q0 -32 -33 -32t-33 32z" />
<glyph unicode="&#xf8;" horiz-adv-x="999" d="M82 543q0 272 103 417.5t315 145.5q168 0 272 -96l98 176l21 -12l-103 -183q130 -142 130 -448q0 -272 -103 -417.5t-315 -145.5q-146 0 -240 69l-92 -164l-21 13l93 165q-158 133 -158 480zM106 543q0 -330 146 -459l508 905q-97 94 -260 94q-394 0 -394 -540zM270 70 q89 -68 230 -68q393 0 393 541q0 294 -117 428z" />
<glyph unicode="&#xf9;" horiz-adv-x="968" d="M123 371v714h24v-706q0 -190 85 -283.5t237 -93.5q184 0 352 164v919h25v-1101l-25 -4v155q-168 -155 -358 -155q-160 0 -250 100.5t-90 290.5zM287 1485l18 16l254 -291l-16 -16z" />
<glyph unicode="&#xfa;" horiz-adv-x="968" d="M123 371v714h24v-706q0 -190 85 -283.5t237 -93.5q184 0 352 164v919h25v-1101l-25 -4v155q-168 -155 -358 -155q-160 0 -250 100.5t-90 290.5zM430 1210l254 291l18 -16l-256 -291z" />
<glyph unicode="&#xfb;" horiz-adv-x="968" d="M123 371v714h24v-706q0 -190 85 -283.5t237 -93.5q184 0 352 164v919h25v-1101l-25 -4v155q-168 -155 -358 -155q-160 0 -250 100.5t-90 290.5zM262 1204l219 293h25l219 -293l-18 -14l-213 283l-213 -283z" />
<glyph unicode="&#xfc;" horiz-adv-x="968" d="M123 371v714h24v-706q0 -190 85 -283.5t237 -93.5q184 0 352 164v919h25v-1101l-25 -4v155q-168 -155 -358 -155q-160 0 -250 100.5t-90 290.5zM307 1358q0 33 33 33t33 -33t-33 -33t-33 33zM614 1358q0 33 33 33t33 -33t-33 -33t-33 33z" />
<glyph unicode="&#xfd;" horiz-adv-x="866" d="M10 1085h27l403 -1028l389 1028h27l-395 -1042q-27 -72 -46 -118t-45 -101t-49.5 -89t-55 -69t-66 -53.5t-78 -30.5t-94.5 -12l-7 24q126 0 207 68q90 73 185 318l16 43zM389 1210l254 291l19 -16l-256 -291z" />
<glyph unicode="&#xfe;" horiz-adv-x="956" d="M123 -410v1962l24 4v-606q149 156 340 156q96 0 171.5 -44t121.5 -118.5t70 -168t24 -197.5q0 -127 -31 -234.5t-90.5 -189.5t-155 -128t-216.5 -46q-127 0 -234 40v-430h-24zM147 47q102 -45 234 -45q115 0 206 45.5t147.5 125.5t86 183t29.5 222q0 80 -14 153.5 t-43.5 137.5t-71.5 111.5t-102 75t-132 27.5q-97 0 -184.5 -44.5t-155.5 -120.5v-871z" />
<glyph unicode="&#xff;" horiz-adv-x="866" d="M10 1085h27l403 -1028l389 1028h27l-395 -1042q-27 -72 -46 -118t-45 -101t-49.5 -89t-55 -69t-66 -53.5t-78 -30.5t-94.5 -12l-7 24q126 0 207 68q90 73 185 318l16 43zM246 1358q0 33 33 33q32 0 32 -33t-32 -33q-33 0 -33 33zM553 1358q0 33 33 33q32 0 32 -33 t-32 -33q-33 0 -33 33z" />
<glyph unicode="&#x152;" horiz-adv-x="1742" d="M82 737q0 361 161 559.5t470 198.5q64 0 161.5 -10t147.5 -10h639v-23h-655v-664h526v-22h-526v-743h696v-23h-680q-68 0 -160.5 -10t-138.5 -10q-641 0 -641 757zM106 737q0 -118 15.5 -218t58 -198.5t110 -166.5t178 -110t255.5 -42q44 0 136.5 9.5t121.5 11.5v1429 q-14 1 -73 7.5t-107 10t-88 3.5q-139 0 -246.5 -43.5t-174.5 -113.5t-110 -168.5t-59.5 -198.5t-16.5 -212z" />
<glyph unicode="&#x153;" horiz-adv-x="1732" d="M82 543q0 272 103 417.5t315 145.5q352 0 407 -406q34 188 139.5 297t256.5 109q111 0 191 -62t118.5 -167t38.5 -242q0 -35 -2 -62h-731v-49q0 -109 20 -199t64.5 -164.5t124.5 -116.5t190 -42q172 0 287 76l8 -23q-119 -75 -297 -75q-349 0 -410 385 q-64 -385 -405 -385q-212 0 -315 145.5t-103 417.5zM106 543q0 -541 394 -541q393 0 393 541q0 540 -393 540q-394 0 -394 -540zM920 596h706v27q0 120 -26 210.5t-72 144t-102.5 79.5t-122.5 26q-158 0 -264.5 -132.5t-118.5 -354.5z" />
<glyph unicode="&#x178;" horiz-adv-x="1009" d="M10 1475h29l461 -879l473 879h26l-487 -906v-569h-25v569zM307 1704q0 33 33 33t33 -33t-33 -33t-33 33zM635 1704q0 33 33 33q32 0 32 -33t-32 -33q-33 0 -33 33z" />
<glyph unicode="&#x2c6;" horiz-adv-x="614" d="M76 1204l219 293h24l220 -293l-19 -14l-213 283l-213 -283z" />
<glyph unicode="&#x2dc;" horiz-adv-x="614" d="M43 1288q11 61 46 107.5t91 46.5q33 0 70 -20t64 -43.5t61 -43.5t63 -20q47 0 75 40.5t38 90.5h22q-11 -61 -46 -107.5t-91 -46.5q-33 0 -70 20t-64 43.5t-61 43.5t-63 20q-47 0 -74.5 -40.5t-37.5 -90.5h-23z" />
<glyph unicode="&#x2000;" horiz-adv-x="935" />
<glyph unicode="&#x2001;" horiz-adv-x="1870" />
<glyph unicode="&#x2002;" horiz-adv-x="935" />
<glyph unicode="&#x2003;" horiz-adv-x="1870" />
<glyph unicode="&#x2004;" horiz-adv-x="623" />
<glyph unicode="&#x2005;" horiz-adv-x="467" />
<glyph unicode="&#x2006;" horiz-adv-x="311" />
<glyph unicode="&#x2007;" horiz-adv-x="311" />
<glyph unicode="&#x2008;" horiz-adv-x="233" />
<glyph unicode="&#x2009;" horiz-adv-x="374" />
<glyph unicode="&#x200a;" horiz-adv-x="103" />
<glyph unicode="&#x2010;" horiz-adv-x="688" d="M61 569v23h566v-23h-566z" />
<glyph unicode="&#x2011;" horiz-adv-x="688" d="M61 569v23h566v-23h-566z" />
<glyph unicode="&#x2012;" horiz-adv-x="688" d="M61 569v23h566v-23h-566z" />
<glyph unicode="&#x2013;" horiz-adv-x="1024" d="M61 565v23h902v-23h-902z" />
<glyph unicode="&#x2014;" horiz-adv-x="2048" d="M61 565v23h1926v-23h-1926z" />
<glyph unicode="&#x2018;" horiz-adv-x="284" d="M113 1247q0 192 125 320l16 -17q-117 -126 -117 -307q0 -20 2 -47h-24q-2 25 -2 51z" />
<glyph unicode="&#x2019;" horiz-adv-x="253" d="M41 1202q117 126 117 307q0 20 -2 47h24q2 -25 2 -51q0 -191 -125 -319z" />
<glyph unicode="&#x201a;" horiz-adv-x="270" d="M10 -299q117 126 117 307q0 20 -2 47h25q2 -25 2 -51q0 -191 -125 -319z" />
<glyph unicode="&#x201c;" horiz-adv-x="468" d="M113 1247q0 192 125 320l16 -17q-117 -126 -117 -307q0 -20 2 -47h-24q-2 25 -2 51zM297 1247q0 192 125 320l16 -17q-116 -125 -116 -307q0 -20 2 -47h-25q-2 25 -2 51z" />
<glyph unicode="&#x201d;" horiz-adv-x="438" d="M41 1202q117 126 117 307q0 20 -2 47h24q2 -25 2 -51q0 -191 -125 -319zM225 1202q117 126 117 307q0 20 -2 47h25q2 -25 2 -51q0 -191 -125 -319z" />
<glyph unicode="&#x201e;" horiz-adv-x="454" d="M10 -299q117 126 117 307q0 20 -2 47h25q2 -25 2 -51q0 -191 -125 -319zM195 -299q116 125 116 307q0 20 -2 47h25q2 -25 2 -51q0 -191 -125 -319z" />
<glyph unicode="&#x2022;" horiz-adv-x="479" d="M82 592q0 74 42 116t116 42q73 0 115 -42t42 -116t-42 -116t-115 -42q-74 0 -116 42t-42 116z" />
<glyph unicode="&#x2026;" horiz-adv-x="966" d="M123 23q0 32 33 32q17 0 24.5 -7.5t7.5 -24.5q0 -33 -32 -33q-33 0 -33 33zM451 23q0 17 7.5 24.5t24.5 7.5q33 0 33 -32q0 -33 -33 -33q-32 0 -32 33zM778 23q0 32 33 32t33 -32q0 -33 -33 -33t-33 33z" />
<glyph unicode="&#x202f;" horiz-adv-x="374" />
<glyph unicode="&#x2039;" horiz-adv-x="497" d="M82 553l324 455l20 -15l-313 -440l313 -440l-20 -15z" />
<glyph unicode="&#x203a;" horiz-adv-x="497" d="M72 113l313 440l-313 440l20 15l324 -455l-324 -455z" />
<glyph unicode="&#x205f;" horiz-adv-x="467" />
<glyph unicode="&#x20ac;" horiz-adv-x="987" d="M-4 590v22h129q-2 39 -2 105q0 69 6 133h-133v22h137q22 172 91.5 302t188 205t271.5 75q155 0 279 -61l-11 -21q-120 60 -268 60q-117 0 -212 -45t-158 -124.5t-101.5 -177.5t-54.5 -213h596v-22h-600q-7 -79 -7 -133q0 -46 3 -105h604v-22h-602q11 -124 43 -225 t91 -185t155 -131t223 -47q178 0 323 90l10 -20q-146 -92 -333 -92q-245 0 -379 159.5t-158 450.5h-131z" />
<glyph unicode="&#x2122;" horiz-adv-x="1241" d="M41 1452v23h393v-23h-184v-610h-25v610h-184zM504 842l59 633h39l229 -609l230 609h39l59 -633h-24l-58 610l-229 -610h-33l-229 610l-58 -610h-24z" />
<glyph unicode="&#x25fc;" horiz-adv-x="1085" d="M0 0v1085h1085v-1085h-1085z" />
</font>
</defs>
</svg>
